<svg width="983" height="207" viewBox="0 0 983 207" fill="none" xmlns="http://www.w3.org/2000/svg">
<g clip-path="url(#clip0_3_1016)">
<path d="M445.912 91.7026V88.1038C445.912 88.0751 445.883 88.075 445.854 88.075C444.559 88.075 440.586 88.1326 439.405 88.1326C434.713 88.0463 432.755 88.219 428.091 87.7584C419.915 86.9522 412.487 83.8141 405.577 79.5245C398.898 75.3787 392.392 70.9451 385.885 66.5402C377.622 60.9262 369.273 55.4849 359.83 52.0013C352.489 49.2951 344.975 47.7404 337.259 47.8556C329.543 47.7404 322.029 49.2951 314.688 52.0013C305.245 55.4849 296.896 60.9262 288.633 66.5402C282.126 70.9739 275.62 75.4075 268.941 79.5245C262.031 83.8141 254.603 86.9522 246.427 87.7584C241.763 88.219 237.041 88.0175 232.349 88.075C231.139 88.1038 229.959 88.075 228.664 88.075C228.635 88.075 228.635 88.0751 228.606 88.1038H228.577V91.7026H231.37C234.911 91.7314 238.452 91.8177 241.993 91.7026H246.11C249.709 91.9617 253.25 92.7966 256.561 94.2073C259.296 95.3301 262.146 96.3953 264.622 97.95C271.445 102.24 278.096 106.76 284.833 111.165C291.569 115.569 298.133 120.262 305.101 124.293C313.018 128.842 321.367 131.72 330.177 132.642V132.699H330.551H330.608C334.985 133.074 339.389 133.074 343.794 132.699H343.852H344.226V132.642C353.036 131.72 361.414 128.842 369.302 124.293C376.269 120.291 382.833 115.598 389.57 111.165C396.307 106.731 402.957 102.211 409.781 97.95C412.285 96.3953 415.107 95.3301 417.842 94.2073C421.181 92.8254 424.694 91.9905 428.293 91.7026M270.582 81.9428C277.981 76.9909 285.408 72.0679 292.807 67.0584C301.012 61.502 309.448 56.4062 318.949 53.3832C322.835 52.1453 326.808 51.3104 330.868 50.8785V50.9361C332.912 50.7058 334.956 50.5906 337.029 50.5618H337.432C339.476 50.5906 341.549 50.7058 343.593 50.9361V50.8785C347.623 51.3104 351.625 52.1453 355.512 53.3832C365.041 56.4062 373.448 61.502 381.653 67.0584C389.023 72.0679 396.48 76.9909 403.879 81.9428C404.138 82.1155 404.195 82.461 404.023 82.6913C403.908 82.8641 403.706 82.9505 403.504 82.9217C402.929 82.8353 402.353 82.6913 401.777 82.4898C393.428 79.6684 385.108 76.7894 376.73 74.0256C363.861 69.7935 350.704 67.5191 337.23 67.663C323.756 67.5479 310.6 69.8223 297.73 74.0256C289.353 76.7894 281.032 79.6684 272.683 82.4898C272.107 82.6913 271.532 82.8353 270.956 82.9217C270.668 82.9217 270.409 82.6626 270.409 82.3747C270.409 82.2019 270.495 82.058 270.639 81.9428H270.582ZM405.606 96.6256C405.376 96.9423 405.059 97.2302 404.714 97.4318C400.107 100.541 395.472 103.622 390.894 106.76C384.561 111.078 378.371 115.627 371.864 119.686C363.227 125.07 354.072 128.726 344.226 129.878C341.837 130.166 339.418 130.31 337 130.31C332.883 130.339 328.766 129.907 324.735 128.985C316.933 127.316 309.563 124.062 302.538 119.686C296.032 115.627 289.842 111.078 283.508 106.76C278.902 103.622 274.295 100.541 269.689 97.4318L269.545 97.3166C269.315 97.1439 269.257 96.7984 269.43 96.5393C269.574 96.3665 269.804 96.2802 270.006 96.3377C270.409 96.4529 270.841 96.5681 271.244 96.712C278.614 99.3895 286.013 102.096 293.383 104.802C302.941 108.286 312.73 110.992 322.835 112.316C325.311 112.633 327.816 112.863 330.292 112.978L331.76 113.036H331.933C333.689 113.093 335.445 113.122 337.201 113.122C338.958 113.122 340.714 113.093 342.47 113.036H342.643C343.103 113.036 343.593 113.036 344.111 113.036V112.978C346.616 112.863 349.092 112.662 351.596 112.316C361.702 110.992 371.49 108.286 381.048 104.802C388.419 102.125 395.818 99.4183 403.188 96.712C403.879 96.4529 404.57 96.2802 405.289 96.1074C405.462 96.0786 405.635 96.165 405.664 96.3377C405.692 96.4241 405.664 96.5105 405.635 96.5681L405.606 96.6256ZM406.268 92.5087C404.598 93.0845 401.95 94.1209 400.453 94.6679C390.347 98.2667 380.357 102.125 370.166 105.435C361.73 108.17 352.978 109.84 344.111 110.358V110.33C341.894 110.474 339.591 110.56 337.259 110.56C334.927 110.56 332.595 110.474 330.378 110.33V110.358C321.511 109.84 312.759 108.199 304.323 105.435C294.132 102.125 283.911 98.7849 274.036 94.6679C272.511 94.0345 271.33 93.5163 269.603 92.6526C269.056 92.3935 269.142 91.6162 269.747 91.5874H406.211C406.47 91.5874 406.671 91.8177 406.671 92.0768C406.671 92.2784 406.556 92.4511 406.355 92.5087H406.268ZM406.096 87.9599C405.664 87.9887 405.174 87.9887 404.656 88.0175H371.634C361.932 87.9599 351.913 87.9311 343.909 87.9887H330.608C310.34 87.9599 276.714 87.9599 268.365 87.9599C267.847 87.9599 267.731 87.0098 268.221 86.8371C277.203 83.8141 286.214 80.8488 295.168 77.8258C305.734 74.2559 316.501 71.5497 327.643 70.7723C329.543 70.6284 331.472 70.5708 333.372 70.542H337.259H341.146C343.074 70.5708 344.975 70.6284 346.875 70.7723C358.016 71.5497 368.784 74.2559 379.35 77.8258C388.332 80.8776 397.315 83.8429 406.297 86.8371C407.132 87.2977 406.671 87.9311 406.124 87.9599H406.096Z" fill="white"/>
<path d="M605.062 88.0756V88.1044C601.867 87.9317 600.83 87.5286 598.815 86.521V86.5498C595.331 84.6496 593.028 81.6843 591.502 78.028C590.322 75.2066 589.689 72.27 589.142 69.3046C588.479 65.6771 588.048 61.992 587.069 58.3933C585.831 53.8157 583.787 49.6987 580.447 46.3303C578.259 44.1423 575.726 42.5876 572.645 42.0118C568.269 41.1769 564.382 42.3861 560.812 44.862C556.523 47.885 553.529 51.9731 551.197 56.6083C549.21 60.5813 547.713 64.7558 546.072 68.8728C542.531 77.7113 536.111 83.3253 527.157 86.2331L527.071 86.2619C523.213 87.471 519.211 88.0756 515.152 88.0756H504.73V88.1044H496.87V88.1332H471.996V91.7319H514.432C515.699 91.7607 516.879 91.7319 517.714 91.7032H537.09H538.068L547.511 91.7895C551.542 91.7895 555.573 92.3941 559.43 93.6033L559.546 93.6321C568.499 96.5111 574.919 102.154 578.461 110.992C580.102 115.109 581.599 119.284 583.585 123.257C585.917 127.892 588.911 131.98 593.201 135.003C596.742 137.508 600.658 138.688 605.034 137.853C608.114 137.278 610.676 135.723 612.836 133.535C616.204 130.138 618.219 126.021 619.457 121.472C620.436 117.902 620.868 114.217 621.53 110.561C622.077 107.595 622.711 104.63 623.891 101.837C625.446 98.1809 627.749 95.2155 631.204 93.3154C631.204 93.3154 631.837 92.9123 632.211 92.682C632.384 92.5668 632.586 92.4805 632.758 92.3941C633.91 91.9623 634.428 91.9335 637.25 91.7895H637.365H637.768H637.912L651.069 91.8471V91.8183H681.643V91.7895H690.482V88.1908M627.173 91.7895C624.668 93.6896 622.826 96.2807 621.329 99.4188C619.832 102.557 619.054 106.012 618.421 109.438C617.672 113.497 617.154 117.585 615.916 121.529C614.995 124.552 613.699 127.374 611.627 129.821C609.784 131.98 607.625 133.621 604.832 134.37C601.55 135.233 598.527 134.456 595.706 132.758C592.913 131.059 590.811 128.727 588.998 126.049C586.551 122.451 584.909 118.449 583.355 114.39C582.434 112 581.484 109.639 580.447 107.307C578.403 102.471 574.948 98.3248 570.543 95.417C563.087 90.494 559.114 88.9969 550.39 88.1908C549.556 88.1044 548.202 88.1044 546.705 88.1332H531.994C534.124 87.0392 536.168 85.8012 538.155 84.4769C542.617 81.5403 545.87 77.5385 548.03 72.6155C549.066 70.2835 550.016 67.8939 550.909 65.5332C552.463 61.5026 554.104 57.5008 556.551 53.8733C558.365 51.2246 560.467 48.8638 563.26 47.1652C566.081 45.4378 569.104 44.6893 572.386 45.553C575.15 46.2727 577.338 47.9425 579.18 50.1018C581.253 52.5201 582.549 55.3415 583.47 58.3933C584.679 62.3375 585.226 66.4256 585.975 70.485C586.608 73.9398 587.385 77.337 588.883 80.5039C591.186 85.3406 594.237 88.8242 599.333 90.5803C601.205 91.2137 601.377 91.5016 605.149 91.7607V91.6744" fill="white"/>
<path d="M189.711 88.1908C183.262 88.1908 176.813 88.2484 170.335 88.162C170.019 88.162 169.759 87.9317 169.731 87.615C169.644 86.9816 169.587 86.5498 169.529 86.1179C168.953 81.5115 168.579 76.8476 167.744 72.27C166.218 63.9785 163.656 56.0325 158.934 48.9502C157.927 47.4819 157.38 45.7257 157.38 43.9407C157.293 40.1693 156.948 36.3978 155.71 32.7991C154.155 28.2215 149.779 25.141 144.971 25.4576C141.747 25.688 139.069 27.3578 136.737 29.9201C136.133 30.5822 135.586 31.302 134.924 32.1081C134.722 32.3672 134.319 32.4248 134.06 32.1945C133.974 32.1369 133.916 32.0505 133.887 31.9642C133.542 31.2444 133.254 30.6398 132.995 30.0064C130.289 23.9606 126.805 18.4329 122.199 13.6538C117.419 8.75952 111.892 5.27594 105.097 3.89403C98.3605 2.51211 91.451 2.33937 84.6853 3.34702C70.6359 5.41989 58.4578 11.4946 47.7479 20.7073C37.0381 29.9201 29.0345 41.1481 22.528 53.5566C17.8928 62.3663 14.3517 71.5502 13.4016 81.5979C13.2289 83.2965 13.1713 85.0239 13.0849 87.0104C13.0561 87.3271 12.797 87.5862 12.4515 87.5862C11.5303 87.5862 10.6954 87.5862 9.86046 87.5862L-15.1292 87.7301V91.6168L10.2347 91.4728C11.1848 91.4728 12.1349 91.4728 13.0273 91.4728C13.3152 91.4728 13.5456 91.6456 13.6319 91.9335C13.7759 92.3941 13.8623 92.682 13.9198 92.9699C16.0215 103.334 21.8946 111.108 30.3589 117.125C36.6926 121.616 43.7461 124.639 51.0876 127.172C68.8797 133.276 86.8158 134.197 104.896 128.669C109.675 127.201 114.31 125.243 119.262 123.372C119.579 123.257 119.953 123.401 120.068 123.746V123.775C120.27 124.38 120.442 124.984 120.644 125.589C121.623 128.583 122.486 131.606 123.638 134.514C125.049 138.055 126.949 141.366 129.77 144.043C134.031 148.103 138.954 149.168 144.511 147.124C147.591 146.001 150.24 144.13 152.601 141.884C158.301 136.471 162.188 129.879 165.095 122.652C168.349 114.505 169.615 105.983 169.731 97.2596C169.759 95.7625 169.817 94.2655 169.875 92.5669C169.875 92.2214 170.163 91.9623 170.508 91.9623H202.637V88.162C198.29 88.1908 194.001 88.1908 189.711 88.1908ZM157.351 54.3915C163.08 64.8422 165.095 76.1278 165.7 88.0181H149.923C153.493 76.9627 155.796 65.7923 157.351 54.3915ZM144.683 29.4019C147.879 28.7973 150.528 30.2943 151.766 33.2885C152.831 35.9084 153.263 38.6722 153.234 42.127C148.656 38.2403 143.705 36.0523 137.774 35.2174C139.53 32.1657 141.459 30.0064 144.683 29.4019ZM152.802 47.338C153.292 47.885 153.493 48.9214 153.436 49.6987C152.629 62.4239 150.154 74.9762 146.065 87.0392C145.864 87.4135 145.634 87.7877 145.403 88.162L134.952 87.0968C139.616 71.0896 140.682 55.3703 136.248 39.1328C143.33 39.5935 148.599 42.5013 152.802 47.338ZM133.513 46.3591C136.536 59.8328 135.068 72.9609 131.095 86.2907L126.344 85.3118C129.511 72.2412 130.087 59.0554 133.513 46.3591ZM127.467 54.7945C126.287 61.5314 125.481 68.3258 124.415 75.0914C123.955 78.0855 123.264 81.0221 122.63 84.3617C120.298 83.6132 118.226 83.0374 116.239 82.2601C115.663 82.0298 115.145 81.1948 115.001 80.5615C113.878 75.7536 112.813 70.9169 111.805 66.109C111.661 65.4468 111.661 64.7846 111.805 64.1512C112.928 58.6524 112.554 53.1823 111.345 47.741C111.316 47.3667 111.316 46.9925 111.345 46.647C117.362 43.1922 123.667 40.3132 130.922 39.3919C129.684 44.8044 128.388 49.7563 127.467 54.7945ZM105.961 68.3546C104.435 70.9169 102.42 73.1625 100.03 74.9474L92.545 70.2547C93.5814 63.9209 98.9075 55.5431 104.032 52.261C104.953 55.6294 105.731 58.9403 106.796 62.1359C107.631 64.4679 107.141 66.3969 105.961 68.3546ZM108.984 71.2623C109.675 74.4004 110.222 77.0203 110.913 80.2448L104.003 77.0779L108.984 71.2623ZM96.518 77.3946L91.1919 80.0145C91.3358 77.8264 91.451 76.2718 91.5661 74.2565L96.518 77.3946ZM89.0038 67.4621C88.1689 66.9151 87.5068 66.5696 86.9885 66.0802C83.0443 62.3663 79.1289 58.6236 75.1559 54.9385C73.9179 53.7869 73.8891 52.6641 74.5225 51.1382C77.9773 42.674 86.1248 37.1463 94.9633 37.2615C97.5256 37.2903 99.3106 37.9525 100.059 40.7163C100.693 43.0771 101.729 45.3515 102.679 47.8562C96.1725 53.2111 91.6525 59.5737 89.0038 67.4621ZM81.173 37.3479C76.4802 40.1117 73.3997 44.2286 70.9526 49.6699C66.5765 43.0771 63.0354 36.8872 63.1793 29.2579C63.2657 24.7379 65.3098 21.3983 69.3403 19.4406C74.9256 16.7343 80.5108 16.6192 85.8657 20.0739C90.7024 23.212 93.7254 27.9048 96.6044 33.2885C90.8464 33.3461 85.8082 34.584 81.173 37.3479ZM72.68 58.3645C75.2423 60.7828 77.603 63.1436 80.1077 65.3604C82.6125 67.5772 85.1748 69.6213 87.7947 71.8093C87.5931 75.1202 87.3916 78.2007 87.1901 81.6843L75.2711 84.7072C72.2769 80.072 70.8374 65.7635 72.68 58.3645ZM87.7947 85.5997C90.1266 96.0216 94.5891 105.033 103.773 111.165C98.9939 112.029 94.733 110.82 90.7888 108.344C86.0673 105.407 82.6701 101.233 79.9062 96.5111C78.4955 94.0639 77.3727 91.4728 75.9332 88.6226L87.7947 85.5997ZM102.161 104.803C96.2301 99.2749 93.0344 92.3365 91.6813 84.2466L100.462 79.6978C103.888 81.2524 107.458 82.8071 110.942 84.5057C111.489 84.7648 111.978 85.5997 112.122 86.2331C113.245 91.5304 114.253 96.8565 115.375 102.154C115.692 103.68 115.001 104.745 114.109 105.753C110.798 109.668 110.884 109.985 105.846 107.422C104.522 106.731 103.255 105.839 102.161 104.803ZM17.2882 81.31C17.9216 75.1202 19.6778 69.1895 22.1249 63.4891C28.0269 49.8139 35.8865 37.4054 46.5963 26.9835C57.2486 16.6479 69.6858 9.70958 84.455 7.29123C91.0479 6.19722 97.7847 6.34117 104.32 7.69429C109.502 8.75952 113.936 11.2354 117.765 14.8054C123.58 20.2467 127.582 26.8684 130.461 34.2386C130.548 34.4977 130.519 34.7856 130.576 35.3614C123.177 36.4554 116.383 39.2768 109.819 42.9043C108.811 41.4936 107.919 40.1405 106.911 38.9025C106.191 38.0388 105.385 37.06 104.435 36.5705C102.017 35.3902 100.894 33.2885 99.7712 31.0717C97.756 27.0699 95.2512 23.356 92.0555 20.1603C88.3704 16.4752 84.0807 13.9993 78.7834 13.6826C73.4861 13.3659 68.563 14.6327 64.3885 18.0299C61.1928 20.6209 59.6382 24.1333 59.2927 28.1927C58.976 32.3672 59.8397 36.3402 61.3368 40.1981C63.0354 44.5741 65.3961 48.5759 68.16 52.3762C68.8509 53.2975 69.4267 54.1612 69.11 55.4855C66.922 64.9861 67.8721 74.4004 70.3192 83.6996C70.4344 84.1314 70.5207 84.5921 70.6935 85.3406C52.9877 88.0181 35.2819 87.3559 17.5761 87.5862C16.6549 85.427 17.0867 83.3253 17.2882 81.31ZM116.095 120.205C102.305 126.827 87.7659 129.562 72.5936 128.007C60.07 126.769 47.9207 122.911 36.9517 116.75C30.6467 113.209 25.2343 108.632 21.4916 102.327C19.5051 99.0446 18.2095 95.417 17.6625 91.6168C18.7853 91.5592 19.7642 91.4728 20.7718 91.4441C31.712 91.2713 42.6521 91.2425 53.5635 90.8683C58.8608 90.6955 64.1582 89.9182 69.4555 89.4288C70.2904 89.3424 71.1253 89.3136 72.0466 89.256C72.9967 91.3289 73.8604 93.3154 74.8104 95.2731C77.1424 99.9946 80.079 104.313 83.9368 107.912C90.357 113.929 97.8423 116.664 106.681 114.965C107.429 114.821 108.149 114.591 108.898 114.418L117.391 112.403C117.938 114.821 118.37 116.664 118.83 118.737C117.88 119.255 117.016 119.773 116.095 120.205ZM118.254 96.7702C117.592 93.4881 116.959 90.2061 116.21 86.4922L121.565 88.162C120.903 91.3289 120.039 94.1215 118.254 96.7702ZM120.039 105.81C120.039 105.119 119.838 104.342 120.068 103.737C121.911 98.987 123.84 94.2655 125.855 89.256L129.742 90.0909C127.669 96.108 125.452 101.722 120.759 105.983L120.039 105.81ZM121.047 110.733C124.329 108.516 127.006 105.494 128.82 101.952C130.663 98.44 132.189 94.7549 133.945 90.9258L143.647 91.9047C143.215 99.1021 130.404 113.727 122.314 116.29C121.911 114.562 121.508 112.806 121.047 110.733ZM156.199 131.318C154.846 133.391 153.32 135.349 151.679 137.191C150.326 138.659 148.858 140.013 147.217 141.193C140.394 146.231 134.118 144.993 129.569 137.796C126.344 132.642 124.818 126.856 123.379 120.752C134.809 113.987 143.964 105.148 148.282 92.1926H165.412C165.556 92.5381 165.786 92.8835 165.815 93.2002C166.046 106.76 163.829 119.744 156.199 131.318Z" fill="white"/>
<path d="M882.338 88.7375L875.025 82.5477C874.708 82.2598 874.248 82.1735 873.816 82.2886C873.413 82.4038 873.096 82.7493 873.01 83.1811C872.923 83.6129 873.096 84.016 873.413 84.3039L877.818 88.0178H716.191V91.6165H877.847L873.413 95.3592C872.952 95.7623 872.895 96.482 873.298 96.9714L873.327 97.0002C873.758 97.4609 874.507 97.5185 875.025 97.1154L882.338 90.9256C882.942 90.4361 883.029 89.5437 882.539 88.9391C882.482 88.8527 882.395 88.7663 882.338 88.7375ZM879.804 89.9467V89.7164C879.891 89.7452 879.891 89.8604 879.804 89.9467C879.833 89.9179 879.833 89.9179 879.804 89.9467Z" fill="white"/>
<path d="M215.564 83C219.019 83 221.812 85.7926 221.812 89.2474V89.5065C221.812 92.9613 219.019 95.7539 215.564 95.7539C212.11 95.7539 209.317 92.9613 209.317 89.5065V89.2474C209.346 85.7926 212.138 83 215.564 83Z" fill="#841662"/>
<path d="M458.983 83C462.438 83 465.23 85.7926 465.23 89.2474V89.5065C465.23 92.9613 462.438 95.7539 458.983 95.7539C455.528 95.7539 452.735 92.9613 452.735 89.5065V89.2474C452.735 85.7926 455.528 83 458.983 83Z" fill="#841662"/>
<path d="M703.524 83.498C706.979 83.498 709.771 86.2907 709.771 89.7454V90.0046C709.771 93.4593 706.979 96.252 703.524 96.252C700.069 96.252 697.276 93.4593 697.276 90.0046V89.7454C697.276 86.2907 700.069 83.498 703.524 83.498Z" fill="#841662"/>
<path d="M895.696 83.498C899.151 83.498 901.944 86.2907 901.944 89.7454V90.0046C901.944 93.4593 899.151 96.252 895.696 96.252C892.241 96.252 889.449 93.4593 889.449 90.0046V89.7454C889.449 86.2907 892.27 83.498 895.696 83.498Z" fill="#841662"/>
<path d="M190.64 144.371H195.72C197.92 144.371 199.654 145.005 200.92 146.271C202.16 147.538 202.78 149.278 202.78 151.491C202.78 153.705 202.16 155.445 200.92 156.711C199.654 157.978 197.92 158.611 195.72 158.611H190.64V144.371ZM192.78 156.731H195.7C197.26 156.731 198.454 156.278 199.28 155.371C200.12 154.465 200.54 153.171 200.54 151.491C200.54 149.811 200.12 148.518 199.28 147.611C198.454 146.705 197.26 146.251 195.7 146.251H192.78V156.731ZM206.564 146.831H204.524V144.691H206.564V146.831ZM206.544 158.611H204.544V148.291H206.544V158.611ZM212.602 158.871C209.735 158.871 208.229 157.691 208.082 155.331H210.082C210.162 156.051 210.395 156.558 210.782 156.851C211.169 157.145 211.782 157.291 212.622 157.291C214.142 157.291 214.902 156.811 214.902 155.851C214.902 155.438 214.742 155.118 214.422 154.891C214.102 154.665 213.529 154.478 212.702 154.331L211.642 154.131C209.455 153.731 208.362 152.705 208.362 151.051C208.362 150.131 208.715 149.405 209.422 148.871C210.129 148.325 211.102 148.051 212.342 148.051C215.182 148.051 216.635 149.205 216.702 151.511H214.762C214.722 150.818 214.509 150.331 214.122 150.051C213.735 149.758 213.142 149.611 212.342 149.611C211.702 149.611 211.209 149.731 210.862 149.971C210.515 150.211 210.342 150.551 210.342 150.991C210.342 151.391 210.495 151.705 210.802 151.931C211.109 152.145 211.595 152.318 212.262 152.451L213.342 152.631C214.609 152.871 215.522 153.231 216.082 153.711C216.642 154.191 216.922 154.858 216.922 155.711C216.922 156.711 216.542 157.491 215.782 158.051C215.022 158.598 213.962 158.871 212.602 158.871ZM222.851 158.851C221.384 158.851 220.198 158.358 219.291 157.371C218.384 156.385 217.931 155.078 217.931 153.451C217.931 151.811 218.384 150.498 219.291 149.511C220.184 148.538 221.371 148.051 222.851 148.051C224.118 148.051 225.158 148.398 225.971 149.091C226.798 149.785 227.291 150.718 227.451 151.891H225.411C225.278 151.211 224.978 150.691 224.511 150.331C224.058 149.971 223.504 149.791 222.851 149.791C221.984 149.791 221.291 150.111 220.771 150.751C220.264 151.378 220.011 152.278 220.011 153.451C220.011 154.625 220.264 155.531 220.771 156.171C221.291 156.798 221.984 157.111 222.851 157.111C223.518 157.111 224.084 156.925 224.551 156.551C225.018 156.178 225.311 155.638 225.431 154.931H227.471C227.311 156.131 226.811 157.085 225.971 157.791C225.131 158.498 224.091 158.851 222.851 158.851ZM237.396 157.371C236.449 158.358 235.216 158.851 233.696 158.851C232.176 158.851 230.942 158.358 229.996 157.371C229.049 156.385 228.576 155.078 228.576 153.451C228.576 151.811 229.049 150.498 229.996 149.511C230.929 148.538 232.162 148.051 233.696 148.051C235.229 148.051 236.462 148.538 237.396 149.511C238.329 150.485 238.796 151.798 238.796 153.451C238.796 155.091 238.329 156.398 237.396 157.371ZM231.476 156.151C232.022 156.805 232.762 157.131 233.696 157.131C234.629 157.131 235.362 156.805 235.896 156.151C236.442 155.498 236.716 154.598 236.716 153.451C236.716 152.305 236.442 151.405 235.896 150.751C235.362 150.098 234.629 149.771 233.696 149.771C232.762 149.771 232.022 150.098 231.476 150.751C230.929 151.405 230.656 152.305 230.656 153.451C230.656 154.598 230.929 155.498 231.476 156.151ZM245.573 152.071L246.953 148.291H249.073L245.113 158.611H242.893L238.953 148.291H241.113L242.513 152.071C243.46 154.885 243.966 156.418 244.033 156.671C244.073 156.538 244.16 156.271 244.293 155.871C244.426 155.471 244.613 154.925 244.853 154.231C245.093 153.525 245.333 152.805 245.573 152.071ZM259.02 153.531V154.111H251.24C251.333 155.125 251.633 155.891 252.14 156.411C252.647 156.918 253.333 157.171 254.2 157.171C255.507 157.171 256.36 156.598 256.76 155.451H258.78C258.5 156.505 257.953 157.338 257.14 157.951C256.34 158.551 255.347 158.851 254.16 158.851C252.68 158.851 251.487 158.358 250.58 157.371C249.673 156.385 249.22 155.078 249.22 153.451C249.22 151.825 249.673 150.518 250.58 149.531C251.487 148.545 252.667 148.051 254.12 148.051C255.64 148.051 256.84 148.565 257.72 149.591C258.587 150.618 259.02 151.931 259.02 153.531ZM254.12 149.731C253.333 149.731 252.687 149.971 252.18 150.451C251.687 150.931 251.38 151.625 251.26 152.531H256.96C256.867 151.691 256.567 151.018 256.06 150.511C255.567 149.991 254.92 149.731 254.12 149.731ZM265.934 148.131C266.227 148.131 266.42 148.138 266.514 148.151V150.051H266.014C264.987 150.051 264.194 150.305 263.634 150.811C263.074 151.318 262.794 152.051 262.794 153.011V158.611H260.794V148.291H262.714V150.131C263.367 148.798 264.44 148.131 265.934 148.131ZM195.42 178.291V179.931H193.34V186.131C193.34 186.438 193.427 186.665 193.6 186.811C193.787 186.945 194.094 187.011 194.52 187.011H195.42V188.611C194.98 188.651 194.574 188.671 194.2 188.671C193.227 188.671 192.507 188.485 192.04 188.111C191.574 187.738 191.34 187.138 191.34 186.311V179.931H189.68V178.291H191.34V175.331H193.34V178.291H195.42ZM202.184 178.051C203.318 178.051 204.204 178.371 204.844 179.011C205.484 179.638 205.804 180.531 205.804 181.691V188.611H203.804V181.971C203.804 180.531 203.078 179.811 201.624 179.811C200.958 179.811 200.358 180.065 199.824 180.571C199.291 181.091 199.024 181.831 199.024 182.791V188.611H197.024V174.371H199.024V179.711C199.811 178.605 200.864 178.051 202.184 178.051ZM217.379 183.531V184.111H209.599C209.693 185.125 209.993 185.891 210.499 186.411C211.006 186.918 211.693 187.171 212.559 187.171C213.866 187.171 214.719 186.598 215.119 185.451H217.139C216.859 186.505 216.313 187.338 215.499 187.951C214.699 188.551 213.706 188.851 212.519 188.851C211.039 188.851 209.846 188.358 208.939 187.371C208.033 186.385 207.579 185.078 207.579 183.451C207.579 181.825 208.033 180.518 208.939 179.531C209.846 178.545 211.026 178.051 212.479 178.051C213.999 178.051 215.199 178.565 216.079 179.591C216.946 180.618 217.379 181.931 217.379 183.531ZM212.479 179.731C211.693 179.731 211.046 179.971 210.539 180.451C210.046 180.931 209.739 181.625 209.619 182.531H215.319C215.226 181.691 214.926 181.018 214.419 180.511C213.926 179.991 213.279 179.731 212.479 179.731ZM223.316 174.371H229.376C230.923 174.371 232.123 174.778 232.976 175.591C233.83 176.391 234.256 177.485 234.256 178.871C234.256 180.245 233.83 181.338 232.976 182.151C232.123 182.951 230.923 183.351 229.376 183.351H225.456V188.611H223.316V174.371ZM225.456 181.471H229.336C230.23 181.471 230.91 181.251 231.376 180.811C231.843 180.358 232.076 179.711 232.076 178.871C232.076 178.031 231.843 177.385 231.376 176.931C230.91 176.478 230.23 176.251 229.336 176.251H225.456V181.471ZM240.895 178.131C241.188 178.131 241.381 178.138 241.475 178.151V180.051H240.975C239.948 180.051 239.155 180.305 238.595 180.811C238.035 181.318 237.755 182.051 237.755 183.011V188.611H235.755V178.291H237.675V180.131C238.328 178.798 239.401 178.131 240.895 178.131ZM250.716 187.371C249.769 188.358 248.536 188.851 247.016 188.851C245.496 188.851 244.263 188.358 243.316 187.371C242.369 186.385 241.896 185.078 241.896 183.451C241.896 181.811 242.369 180.498 243.316 179.511C244.249 178.538 245.483 178.051 247.016 178.051C248.549 178.051 249.783 178.538 250.716 179.511C251.649 180.485 252.116 181.798 252.116 183.451C252.116 185.091 251.649 186.398 250.716 187.371ZM244.796 186.151C245.343 186.805 246.083 187.131 247.016 187.131C247.949 187.131 248.683 186.805 249.216 186.151C249.763 185.498 250.036 184.598 250.036 183.451C250.036 182.305 249.763 181.405 249.216 180.751C248.683 180.098 247.949 179.771 247.016 179.771C246.083 179.771 245.343 180.098 244.796 180.751C244.249 181.405 243.976 182.305 243.976 183.451C243.976 184.598 244.249 185.498 244.796 186.151ZM259.24 178.051C260.68 178.051 261.826 178.538 262.68 179.511C263.533 180.485 263.96 181.798 263.96 183.451C263.96 185.091 263.533 186.398 262.68 187.371C261.813 188.358 260.666 188.851 259.24 188.851C257.72 188.851 256.573 188.251 255.8 187.051V188.611H253.88V174.371H255.88V179.731C256.653 178.611 257.773 178.051 259.24 178.051ZM256.66 186.151C257.193 186.805 257.926 187.131 258.86 187.131C259.793 187.131 260.533 186.798 261.08 186.131C261.613 185.478 261.88 184.558 261.88 183.371C261.88 182.225 261.613 181.338 261.08 180.711C260.546 180.085 259.806 179.771 258.86 179.771C257.94 179.771 257.206 180.091 256.66 180.731C256.113 181.398 255.84 182.305 255.84 183.451C255.84 184.598 256.113 185.498 256.66 186.151ZM267.716 188.611H265.716V174.371H267.716V188.611ZM279.274 183.531V184.111H271.494C271.587 185.125 271.887 185.891 272.394 186.411C272.901 186.918 273.587 187.171 274.454 187.171C275.761 187.171 276.614 186.598 277.014 185.451H279.034C278.754 186.505 278.207 187.338 277.394 187.951C276.594 188.551 275.601 188.851 274.414 188.851C272.934 188.851 271.741 188.358 270.834 187.371C269.927 186.385 269.474 185.078 269.474 183.451C269.474 181.825 269.927 180.518 270.834 179.531C271.741 178.545 272.921 178.051 274.374 178.051C275.894 178.051 277.094 178.565 277.974 179.591C278.841 180.618 279.274 181.931 279.274 183.531ZM274.374 179.731C273.587 179.731 272.941 179.971 272.434 180.451C271.941 180.931 271.634 181.625 271.514 182.531H277.214C277.121 181.691 276.821 181.018 276.314 180.511C275.821 179.991 275.174 179.731 274.374 179.731ZM292.328 178.051C293.448 178.051 294.321 178.385 294.948 179.051C295.574 179.705 295.888 180.585 295.888 181.691V188.611H293.868V181.951C293.868 180.525 293.208 179.811 291.888 179.811C291.181 179.811 290.601 180.085 290.148 180.631C289.694 181.165 289.468 181.938 289.468 182.951V188.611H287.468V181.951C287.468 180.525 286.801 179.811 285.468 179.811C284.761 179.811 284.181 180.085 283.728 180.631C283.274 181.178 283.048 181.951 283.048 182.951V188.611H281.048V178.291H282.968V179.831C283.674 178.645 284.668 178.051 285.948 178.051C287.508 178.051 288.568 178.698 289.128 179.991C289.861 178.698 290.928 178.051 292.328 178.051Z" fill="white"/>
<path d="M300.258 188.611H297.838V186.231H300.258V188.611Z" fill="#841662"/>
<path d="M415.64 144.76H420.72C422.92 144.76 424.654 145.393 425.92 146.66C427.16 147.927 427.78 149.667 427.78 151.88C427.78 154.093 427.16 155.833 425.92 157.1C424.654 158.367 422.92 159 420.72 159H415.64V144.76ZM417.78 157.12H420.7C422.26 157.12 423.454 156.667 424.28 155.76C425.12 154.853 425.54 153.56 425.54 151.88C425.54 150.2 425.12 148.907 424.28 148C423.454 147.093 422.26 146.64 420.7 146.64H417.78V157.12ZM438.961 153.92V154.5H431.181C431.275 155.513 431.575 156.28 432.081 156.8C432.588 157.307 433.275 157.56 434.141 157.56C435.448 157.56 436.301 156.987 436.701 155.84H438.721C438.441 156.893 437.895 157.727 437.081 158.34C436.281 158.94 435.288 159.24 434.101 159.24C432.621 159.24 431.428 158.747 430.521 157.76C429.615 156.773 429.161 155.467 429.161 153.84C429.161 152.213 429.615 150.907 430.521 149.92C431.428 148.933 432.608 148.44 434.061 148.44C435.581 148.44 436.781 148.953 437.661 149.98C438.528 151.007 438.961 152.32 438.961 153.92ZM434.061 150.12C433.275 150.12 432.628 150.36 432.121 150.84C431.628 151.32 431.321 152.013 431.201 152.92H436.901C436.808 152.08 436.508 151.407 436.001 150.9C435.508 150.38 434.861 150.12 434.061 150.12ZM440.989 148.68V147.74C440.989 145.713 442.022 144.7 444.089 144.7C444.289 144.7 444.669 144.72 445.229 144.76V146.38H444.329C443.435 146.38 442.989 146.833 442.989 147.74V148.68H445.149V150.32H442.989V159H440.989V150.32H439.329V148.68H440.989ZM446.649 147.22V145.08H448.689V147.22H446.649ZM448.669 159H446.669V148.68H448.669V159ZM456.091 148.44C457.224 148.44 458.111 148.76 458.751 149.4C459.391 150.027 459.711 150.92 459.711 152.08V159H457.711V152.36C457.711 150.92 456.984 150.2 455.531 150.2C454.864 150.2 454.264 150.453 453.731 150.96C453.197 151.48 452.931 152.22 452.931 153.18V159H450.931V148.68H452.851V150.22C453.637 149.033 454.717 148.44 456.091 148.44ZM471.286 153.92V154.5H463.506C463.599 155.513 463.899 156.28 464.406 156.8C464.912 157.307 465.599 157.56 466.466 157.56C467.772 157.56 468.626 156.987 469.026 155.84H471.046C470.766 156.893 470.219 157.727 469.406 158.34C468.606 158.94 467.612 159.24 466.426 159.24C464.946 159.24 463.752 158.747 462.846 157.76C461.939 156.773 461.486 155.467 461.486 153.84C461.486 152.213 461.939 150.907 462.846 149.92C463.752 148.933 464.932 148.44 466.386 148.44C467.906 148.44 469.106 148.953 469.986 149.98C470.852 151.007 471.286 152.32 471.286 153.92ZM466.386 150.12C465.599 150.12 464.952 150.36 464.446 150.84C463.952 151.32 463.646 152.013 463.526 152.92H469.226C469.132 152.08 468.832 151.407 468.326 150.9C467.832 150.38 467.186 150.12 466.386 150.12ZM420.42 178.68V180.32H418.34V186.52C418.34 186.827 418.427 187.053 418.6 187.2C418.787 187.333 419.094 187.4 419.52 187.4H420.42V189C419.98 189.04 419.574 189.06 419.2 189.06C418.227 189.06 417.507 188.873 417.04 188.5C416.574 188.127 416.34 187.527 416.34 186.7V180.32H414.68V178.68H416.34V175.72H418.34V178.68H420.42ZM427.184 178.44C428.318 178.44 429.204 178.76 429.844 179.4C430.484 180.027 430.804 180.92 430.804 182.08V189H428.804V182.36C428.804 180.92 428.078 180.2 426.624 180.2C425.958 180.2 425.358 180.453 424.824 180.96C424.291 181.48 424.024 182.22 424.024 183.18V189H422.024V174.76H424.024V180.1C424.811 178.993 425.864 178.44 427.184 178.44ZM442.379 183.92V184.5H434.599C434.693 185.513 434.993 186.28 435.499 186.8C436.006 187.307 436.693 187.56 437.559 187.56C438.866 187.56 439.719 186.987 440.119 185.84H442.139C441.859 186.893 441.313 187.727 440.499 188.34C439.699 188.94 438.706 189.24 437.519 189.24C436.039 189.24 434.846 188.747 433.939 187.76C433.033 186.773 432.579 185.467 432.579 183.84C432.579 182.213 433.033 180.907 433.939 179.92C434.846 178.933 436.026 178.44 437.479 178.44C438.999 178.44 440.199 178.953 441.079 179.98C441.946 181.007 442.379 182.32 442.379 183.92ZM437.479 180.12C436.693 180.12 436.046 180.36 435.539 180.84C435.046 181.32 434.739 182.013 434.619 182.92H440.319C440.226 182.08 439.926 181.407 439.419 180.9C438.926 180.38 438.279 180.12 437.479 180.12ZM454.676 189.32C452.57 189.32 450.89 188.633 449.636 187.26C448.356 185.9 447.716 184.107 447.716 181.88C447.716 179.667 448.356 177.867 449.636 176.48C450.89 175.12 452.57 174.44 454.676 174.44C456.756 174.44 458.436 175.12 459.716 176.48C460.983 177.867 461.616 179.667 461.616 181.88C461.616 184.093 460.983 185.887 459.716 187.26C458.436 188.633 456.756 189.32 454.676 189.32ZM451.236 185.9C452.09 186.9 453.236 187.4 454.676 187.4C456.116 187.4 457.263 186.9 458.116 185.9C458.97 184.927 459.396 183.587 459.396 181.88C459.396 180.173 458.97 178.827 458.116 177.84C457.25 176.853 456.103 176.36 454.676 176.36C453.25 176.36 452.103 176.853 451.236 177.84C450.37 178.853 449.936 180.2 449.936 181.88C449.936 183.573 450.37 184.913 451.236 185.9ZM468.732 178.44C470.172 178.44 471.319 178.927 472.172 179.9C473.025 180.873 473.452 182.187 473.452 183.84C473.452 185.48 473.025 186.787 472.172 187.76C471.305 188.747 470.159 189.24 468.732 189.24C467.265 189.24 466.145 188.68 465.372 187.56V192.92H463.372V178.68H465.292V180.24C466.065 179.04 467.212 178.44 468.732 178.44ZM466.152 186.54C466.685 187.193 467.419 187.52 468.352 187.52C469.285 187.52 470.025 187.187 470.572 186.52C471.105 185.867 471.372 184.947 471.372 183.76C471.372 182.613 471.105 181.727 470.572 181.1C470.039 180.473 469.299 180.16 468.352 180.16C467.432 180.16 466.699 180.48 466.152 181.12C465.605 181.787 465.332 182.693 465.332 183.84C465.332 184.987 465.605 185.887 466.152 186.54ZM480.568 178.44C482.008 178.44 483.155 178.927 484.008 179.9C484.861 180.873 485.288 182.187 485.288 183.84C485.288 185.48 484.861 186.787 484.008 187.76C483.141 188.747 481.995 189.24 480.568 189.24C479.101 189.24 477.981 188.68 477.208 187.56V192.92H475.208V178.68H477.128V180.24C477.901 179.04 479.048 178.44 480.568 178.44ZM477.988 186.54C478.521 187.193 479.255 187.52 480.188 187.52C481.121 187.52 481.861 187.187 482.408 186.52C482.941 185.867 483.208 184.947 483.208 183.76C483.208 182.613 482.941 181.727 482.408 181.1C481.875 180.473 481.135 180.16 480.188 180.16C479.268 180.16 478.535 180.48 477.988 181.12C477.441 181.787 477.168 182.693 477.168 183.84C477.168 184.987 477.441 185.887 477.988 186.54ZM495.384 187.76C494.437 188.747 493.204 189.24 491.684 189.24C490.164 189.24 488.93 188.747 487.984 187.76C487.037 186.773 486.564 185.467 486.564 183.84C486.564 182.2 487.037 180.887 487.984 179.9C488.917 178.927 490.15 178.44 491.684 178.44C493.217 178.44 494.45 178.927 495.384 179.9C496.317 180.873 496.784 182.187 496.784 183.84C496.784 185.48 496.317 186.787 495.384 187.76ZM489.464 186.54C490.01 187.193 490.75 187.52 491.684 187.52C492.617 187.52 493.35 187.193 493.884 186.54C494.43 185.887 494.704 184.987 494.704 183.84C494.704 182.693 494.43 181.793 493.884 181.14C493.35 180.487 492.617 180.16 491.684 180.16C490.75 180.16 490.01 180.487 489.464 181.14C488.917 181.793 488.644 182.693 488.644 183.84C488.644 184.987 488.917 185.887 489.464 186.54ZM503.688 178.52C503.981 178.52 504.174 178.527 504.268 178.54V180.44H503.768C502.741 180.44 501.948 180.693 501.388 181.2C500.828 181.707 500.548 182.44 500.548 183.4V189H498.548V178.68H500.468V180.52C501.121 179.187 502.194 178.52 503.688 178.52ZM510.713 178.68V180.32H508.633V186.52C508.633 186.827 508.72 187.053 508.893 187.2C509.08 187.333 509.387 187.4 509.813 187.4H510.713V189C510.273 189.04 509.867 189.06 509.493 189.06C508.52 189.06 507.8 188.873 507.333 188.5C506.867 188.127 506.633 187.527 506.633 186.7V180.32H504.973V178.68H506.633V175.72H508.633V178.68H510.713ZM519.097 184.5V178.68H521.097V189H519.177V187.46C518.391 188.647 517.311 189.24 515.937 189.24C514.804 189.24 513.917 188.92 513.277 188.28C512.637 187.64 512.317 186.747 512.317 185.6V178.68H514.317V185.32C514.317 186.76 515.044 187.48 516.497 187.48C517.231 187.48 517.844 187.22 518.337 186.7C518.844 186.167 519.097 185.433 519.097 184.5ZM528.512 178.44C529.646 178.44 530.532 178.76 531.172 179.4C531.812 180.027 532.132 180.92 532.132 182.08V189H530.132V182.36C530.132 180.92 529.406 180.2 527.952 180.2C527.286 180.2 526.686 180.453 526.152 180.96C525.619 181.48 525.352 182.22 525.352 183.18V189H523.352V178.68H525.272V180.22C526.059 179.033 527.139 178.44 528.512 178.44ZM536.408 177.22H534.368V175.08H536.408V177.22ZM536.388 189H534.388V178.68H536.388V189ZM543.526 178.68V180.32H541.446V186.52C541.446 186.827 541.533 187.053 541.706 187.2C541.893 187.333 542.199 187.4 542.626 187.4H543.526V189C543.086 189.04 542.679 189.06 542.306 189.06C541.333 189.06 540.613 188.873 540.146 188.5C539.679 188.127 539.446 187.527 539.446 186.7V180.32H537.786V178.68H539.446V175.72H541.446V178.68H543.526ZM550.57 182.22L551.77 178.68H553.89L549.69 190.3C549.343 191.287 548.883 191.98 548.31 192.38C547.736 192.78 546.923 192.98 545.87 192.98C545.51 192.98 545.163 192.96 544.83 192.92V191.3H545.83C546.723 191.3 547.323 190.887 547.63 190.06C547.656 189.98 547.696 189.853 547.75 189.68C547.816 189.507 547.87 189.373 547.91 189.28L544.09 178.68H546.27L547.47 182.22C548.11 184.193 548.623 185.84 549.01 187.16C549.53 185.467 550.05 183.82 550.57 182.22Z" fill="white"/>
<path d="M555.473 189H553.053V186.62H555.473V189Z" fill="#841662"/>
<path d="M679.64 144.76H684.72C686.92 144.76 688.654 145.393 689.92 146.66C691.16 147.927 691.78 149.667 691.78 151.88C691.78 154.093 691.16 155.833 689.92 157.1C688.654 158.367 686.92 159 684.72 159H679.64V144.76ZM681.78 157.12H684.7C686.26 157.12 687.454 156.667 688.28 155.76C689.12 154.853 689.54 153.56 689.54 151.88C689.54 150.2 689.12 148.907 688.28 148C687.454 147.093 686.26 146.64 684.7 146.64H681.78V157.12ZM702.961 153.92V154.5H695.181C695.275 155.513 695.575 156.28 696.081 156.8C696.588 157.307 697.275 157.56 698.141 157.56C699.448 157.56 700.301 156.987 700.701 155.84H702.721C702.441 156.893 701.895 157.727 701.081 158.34C700.281 158.94 699.288 159.24 698.101 159.24C696.621 159.24 695.428 158.747 694.521 157.76C693.615 156.773 693.161 155.467 693.161 153.84C693.161 152.213 693.615 150.907 694.521 149.92C695.428 148.933 696.608 148.44 698.061 148.44C699.581 148.44 700.781 148.953 701.661 149.98C702.528 151.007 702.961 152.32 702.961 153.92ZM698.061 150.12C697.275 150.12 696.628 150.36 696.121 150.84C695.628 151.32 695.321 152.013 695.201 152.92H700.901C700.808 152.08 700.508 151.407 700.001 150.9C699.508 150.38 698.861 150.12 698.061 150.12ZM708.497 159.26C705.63 159.26 704.123 158.08 703.977 155.72H705.977C706.057 156.44 706.29 156.947 706.677 157.24C707.063 157.533 707.677 157.68 708.517 157.68C710.037 157.68 710.797 157.2 710.797 156.24C710.797 155.827 710.637 155.507 710.317 155.28C709.997 155.053 709.423 154.867 708.597 154.72L707.537 154.52C705.35 154.12 704.257 153.093 704.257 151.44C704.257 150.52 704.61 149.793 705.317 149.26C706.023 148.713 706.997 148.44 708.237 148.44C711.077 148.44 712.53 149.593 712.597 151.9H710.657C710.617 151.207 710.403 150.72 710.017 150.44C709.63 150.147 709.037 150 708.237 150C707.597 150 707.103 150.12 706.757 150.36C706.41 150.6 706.237 150.94 706.237 151.38C706.237 151.78 706.39 152.093 706.697 152.32C707.003 152.533 707.49 152.707 708.157 152.84L709.237 153.02C710.503 153.26 711.417 153.62 711.977 154.1C712.537 154.58 712.817 155.247 712.817 156.1C712.817 157.1 712.437 157.88 711.677 158.44C710.917 158.987 709.857 159.26 708.497 159.26ZM716.326 147.22H714.286V145.08H716.326V147.22ZM716.306 159H714.306V148.68H716.306V159ZM726.204 150.14V148.68H728.124V158.62C728.124 160.033 727.697 161.14 726.844 161.94C725.99 162.753 724.777 163.16 723.204 163.16C721.857 163.16 720.784 162.853 719.984 162.24C719.197 161.627 718.75 160.787 718.644 159.72H720.644C720.804 160.933 721.664 161.54 723.224 161.54C725.157 161.54 726.124 160.58 726.124 158.66V157.52C725.337 158.587 724.23 159.12 722.804 159.12C721.364 159.12 720.217 158.633 719.364 157.66C718.497 156.673 718.064 155.38 718.064 153.78C718.064 152.18 718.497 150.887 719.364 149.9C720.217 148.927 721.357 148.44 722.784 148.44C724.29 148.44 725.43 149.007 726.204 150.14ZM723.164 157.4C724.097 157.4 724.83 157.08 725.364 156.44C725.91 155.787 726.184 154.9 726.184 153.78C726.184 152.66 725.91 151.78 725.364 151.14C724.83 150.487 724.097 150.16 723.164 150.16C722.244 150.16 721.51 150.487 720.964 151.14C720.417 151.793 720.144 152.673 720.144 153.78C720.144 154.9 720.417 155.787 720.964 156.44C721.51 157.08 722.244 157.4 723.164 157.4ZM735.54 148.44C736.673 148.44 737.56 148.76 738.2 149.4C738.84 150.027 739.16 150.92 739.16 152.08V159H737.16V152.36C737.16 150.92 736.433 150.2 734.98 150.2C734.313 150.2 733.713 150.453 733.18 150.96C732.646 151.48 732.38 152.22 732.38 153.18V159H730.38V148.68H732.3V150.22C733.086 149.033 734.166 148.44 735.54 148.44ZM684.42 178.68V180.32H682.34V186.52C682.34 186.827 682.427 187.053 682.6 187.2C682.787 187.333 683.094 187.4 683.52 187.4H684.42V189C683.98 189.04 683.574 189.06 683.2 189.06C682.227 189.06 681.507 188.873 681.04 188.5C680.574 188.127 680.34 187.527 680.34 186.7V180.32H678.68V178.68H680.34V175.72H682.34V178.68H684.42ZM691.184 178.44C692.318 178.44 693.204 178.76 693.844 179.4C694.484 180.027 694.804 180.92 694.804 182.08V189H692.804V182.36C692.804 180.92 692.078 180.2 690.624 180.2C689.958 180.2 689.358 180.453 688.824 180.96C688.291 181.48 688.024 182.22 688.024 183.18V189H686.024V174.76H688.024V180.1C688.811 178.993 689.864 178.44 691.184 178.44ZM706.379 183.92V184.5H698.599C698.693 185.513 698.993 186.28 699.499 186.8C700.006 187.307 700.693 187.56 701.559 187.56C702.866 187.56 703.719 186.987 704.119 185.84H706.139C705.859 186.893 705.313 187.727 704.499 188.34C703.699 188.94 702.706 189.24 701.519 189.24C700.039 189.24 698.846 188.747 697.939 187.76C697.033 186.773 696.579 185.467 696.579 183.84C696.579 182.213 697.033 180.907 697.939 179.92C698.846 178.933 700.026 178.44 701.479 178.44C702.999 178.44 704.199 178.953 705.079 179.98C705.946 181.007 706.379 182.32 706.379 183.92ZM701.479 180.12C700.693 180.12 700.046 180.36 699.539 180.84C699.046 181.32 698.739 182.013 698.619 182.92H704.319C704.226 182.08 703.926 181.407 703.419 180.9C702.926 180.38 702.279 180.12 701.479 180.12ZM717.616 189.32C715.736 189.32 714.27 188.893 713.216 188.04C712.176 187.187 711.65 185.94 711.636 184.3H713.776C713.816 186.433 715.11 187.5 717.656 187.5C718.71 187.5 719.516 187.3 720.076 186.9C720.65 186.487 720.936 185.893 720.936 185.12C720.936 184.493 720.703 184.013 720.236 183.68C719.77 183.333 718.93 183.027 717.716 182.76L716.496 182.5C715.03 182.207 713.923 181.727 713.176 181.06C712.43 180.393 712.056 179.473 712.056 178.3C712.056 177.127 712.51 176.193 713.416 175.5C714.323 174.793 715.55 174.44 717.096 174.44C718.963 174.44 720.363 174.84 721.296 175.64C722.243 176.44 722.73 177.54 722.756 178.94H720.636C720.57 178.02 720.263 177.347 719.716 176.92C719.183 176.48 718.316 176.26 717.116 176.26C716.183 176.26 715.47 176.433 714.976 176.78C714.483 177.127 714.236 177.62 714.236 178.26C714.236 178.913 714.456 179.407 714.896 179.74C715.336 180.1 716.15 180.407 717.336 180.66L718.576 180.92C720.203 181.267 721.37 181.767 722.076 182.42C722.796 183.073 723.156 183.953 723.156 185.06C723.156 186.38 722.663 187.42 721.676 188.18C720.703 188.94 719.35 189.32 717.616 189.32ZM733.388 187.76C732.441 188.747 731.208 189.24 729.688 189.24C728.168 189.24 726.934 188.747 725.988 187.76C725.041 186.773 724.568 185.467 724.568 183.84C724.568 182.2 725.041 180.887 725.988 179.9C726.921 178.927 728.154 178.44 729.688 178.44C731.221 178.44 732.454 178.927 733.388 179.9C734.321 180.873 734.788 182.187 734.788 183.84C734.788 185.48 734.321 186.787 733.388 187.76ZM727.468 186.54C728.014 187.193 728.754 187.52 729.688 187.52C730.621 187.52 731.354 187.193 731.888 186.54C732.434 185.887 732.708 184.987 732.708 183.84C732.708 182.693 732.434 181.793 731.888 181.14C731.354 180.487 730.621 180.16 729.688 180.16C728.754 180.16 728.014 180.487 727.468 181.14C726.921 181.793 726.648 182.693 726.648 183.84C726.648 184.987 726.921 185.887 727.468 186.54ZM738.552 189H736.552V174.76H738.552V189ZM747.57 184.5V178.68H749.57V189H747.65V187.46C746.863 188.647 745.783 189.24 744.41 189.24C743.277 189.24 742.39 188.92 741.75 188.28C741.11 187.64 740.79 186.747 740.79 185.6V178.68H742.79V185.32C742.79 186.76 743.517 187.48 744.97 187.48C745.703 187.48 746.317 187.22 746.81 186.7C747.317 186.167 747.57 185.433 747.57 184.5ZM756.725 178.68V180.32H754.645V186.52C754.645 186.827 754.732 187.053 754.905 187.2C755.092 187.333 755.398 187.4 755.825 187.4H756.725V189C756.285 189.04 755.878 189.06 755.505 189.06C754.532 189.06 753.812 188.873 753.345 188.5C752.878 188.127 752.645 187.527 752.645 186.7V180.32H750.985V178.68H752.645V175.72H754.645V178.68H756.725ZM760.349 177.22H758.309V175.08H760.349V177.22ZM760.329 189H758.329V178.68H760.329V189ZM770.907 187.76C769.961 188.747 768.727 189.24 767.207 189.24C765.687 189.24 764.454 188.747 763.507 187.76C762.561 186.773 762.087 185.467 762.087 183.84C762.087 182.2 762.561 180.887 763.507 179.9C764.441 178.927 765.674 178.44 767.207 178.44C768.741 178.44 769.974 178.927 770.907 179.9C771.841 180.873 772.307 182.187 772.307 183.84C772.307 185.48 771.841 186.787 770.907 187.76ZM764.987 186.54C765.534 187.193 766.274 187.52 767.207 187.52C768.141 187.52 768.874 187.193 769.407 186.54C769.954 185.887 770.227 184.987 770.227 183.84C770.227 182.693 769.954 181.793 769.407 181.14C768.874 180.487 768.141 180.16 767.207 180.16C766.274 180.16 765.534 180.487 764.987 181.14C764.441 181.793 764.167 182.693 764.167 183.84C764.167 184.987 764.441 185.887 764.987 186.54ZM779.231 178.44C780.365 178.44 781.251 178.76 781.891 179.4C782.531 180.027 782.851 180.92 782.851 182.08V189H780.851V182.36C780.851 180.92 780.125 180.2 778.671 180.2C778.005 180.2 777.405 180.453 776.871 180.96C776.338 181.48 776.071 182.22 776.071 183.18V189H774.071V178.68H775.991V180.22C776.778 179.033 777.858 178.44 779.231 178.44Z" fill="white"/>
<path d="M787.246 189H784.826V186.62H787.246V189Z" fill="#841662"/>
<path d="M871.64 144.76H876.72C878.92 144.76 880.654 145.393 881.92 146.66C883.16 147.927 883.78 149.667 883.78 151.88C883.78 154.093 883.16 155.833 881.92 157.1C880.654 158.367 878.92 159 876.72 159H871.64V144.76ZM873.78 157.12H876.7C878.26 157.12 879.454 156.667 880.28 155.76C881.12 154.853 881.54 153.56 881.54 151.88C881.54 150.2 881.12 148.907 880.28 148C879.454 147.093 878.26 146.64 876.7 146.64H873.78V157.12ZM894.961 153.92V154.5H887.181C887.275 155.513 887.575 156.28 888.081 156.8C888.588 157.307 889.275 157.56 890.141 157.56C891.448 157.56 892.301 156.987 892.701 155.84H894.721C894.441 156.893 893.895 157.727 893.081 158.34C892.281 158.94 891.288 159.24 890.101 159.24C888.621 159.24 887.428 158.747 886.521 157.76C885.615 156.773 885.161 155.467 885.161 153.84C885.161 152.213 885.615 150.907 886.521 149.92C887.428 148.933 888.608 148.44 890.061 148.44C891.581 148.44 892.781 148.953 893.661 149.98C894.528 151.007 894.961 152.32 894.961 153.92ZM890.061 150.12C889.275 150.12 888.628 150.36 888.121 150.84C887.628 151.32 887.321 152.013 887.201 152.92H892.901C892.808 152.08 892.508 151.407 892.001 150.9C891.508 150.38 890.861 150.12 890.061 150.12ZM898.735 159H896.735V144.76H898.735V159ZM902.994 147.22H900.954V145.08H902.994V147.22ZM902.974 159H900.974V148.68H902.974V159ZM910.694 152.46L912.074 148.68H914.194L910.234 159H908.014L904.074 148.68H906.234L907.634 152.46C908.581 155.273 909.087 156.807 909.154 157.06C909.194 156.927 909.281 156.66 909.414 156.26C909.547 155.86 909.734 155.313 909.974 154.62C910.214 153.913 910.454 153.193 910.694 152.46ZM924.141 153.92V154.5H916.361C916.455 155.513 916.755 156.28 917.261 156.8C917.768 157.307 918.455 157.56 919.321 157.56C920.628 157.56 921.481 156.987 921.881 155.84H923.901C923.621 156.893 923.075 157.727 922.261 158.34C921.461 158.94 920.468 159.24 919.281 159.24C917.801 159.24 916.608 158.747 915.701 157.76C914.795 156.773 914.341 155.467 914.341 153.84C914.341 152.213 914.795 150.907 915.701 149.92C916.608 148.933 917.788 148.44 919.241 148.44C920.761 148.44 921.961 148.953 922.841 149.98C923.708 151.007 924.141 152.32 924.141 153.92ZM919.241 150.12C918.455 150.12 917.808 150.36 917.301 150.84C916.808 151.32 916.501 152.013 916.381 152.92H922.081C921.988 152.08 921.688 151.407 921.181 150.9C920.688 150.38 920.041 150.12 919.241 150.12ZM931.055 148.52C931.348 148.52 931.542 148.527 931.635 148.54V150.44H931.135C930.108 150.44 929.315 150.693 928.755 151.2C928.195 151.707 927.915 152.44 927.915 153.4V159H925.915V148.68H927.835V150.52C928.488 149.187 929.562 148.52 931.055 148.52ZM881.16 185.96L883.88 189H881.26L879.98 187.56C878.807 188.733 877.32 189.32 875.52 189.32C874.12 189.32 873.014 188.933 872.2 188.16C871.374 187.373 870.96 186.413 870.96 185.28C870.96 184.36 871.214 183.58 871.72 182.94C872.24 182.287 873.06 181.653 874.18 181.04C873.594 180.36 873.174 179.767 872.92 179.26C872.68 178.753 872.56 178.233 872.56 177.7C872.56 176.78 872.894 176.007 873.56 175.38C874.227 174.753 875.134 174.44 876.28 174.44C877.347 174.44 878.227 174.727 878.92 175.3C879.627 175.887 879.98 176.66 879.98 177.62C879.98 179.073 879.014 180.34 877.08 181.42L879.8 184.46C880.08 183.673 880.227 182.873 880.24 182.06H882.16C882.12 183.46 881.787 184.76 881.16 185.96ZM877.52 176.58C877.027 176.1 876.407 175.993 875.66 176.26C874.914 176.527 874.567 177.007 874.62 177.7C874.62 178.353 875.074 179.187 875.98 180.2C877.327 179.453 878 178.62 878 177.7C878 177.26 877.84 176.887 877.52 176.58ZM875.68 187.52C876.96 187.52 877.987 187.08 878.76 186.2L875.28 182.28C874.507 182.693 873.947 183.12 873.6 183.56C873.254 183.987 873.08 184.513 873.08 185.14C873.08 185.807 873.32 186.373 873.8 186.84C874.28 187.293 874.907 187.52 875.68 187.52ZM899.92 185.04L900.06 187.26C900.127 187.993 900.287 188.573 900.54 189H898.34C898.073 188.613 897.933 188.007 897.92 187.18L897.86 185.66C897.82 184.74 897.613 184.093 897.24 183.72C896.867 183.333 896.267 183.14 895.44 183.14H891.3V189H889.16V174.76H895.38C896.9 174.76 898.093 175.113 898.96 175.82C899.84 176.513 900.28 177.473 900.28 178.7C900.28 179.567 900.067 180.3 899.64 180.9C899.227 181.487 898.64 181.9 897.88 182.14C898.573 182.34 899.08 182.68 899.4 183.16C899.72 183.627 899.893 184.253 899.92 185.04ZM891.3 181.36H895.42C896.247 181.36 896.893 181.147 897.36 180.72C897.84 180.293 898.08 179.687 898.08 178.9C898.08 178.14 897.833 177.567 897.34 177.18C896.86 176.793 896.167 176.6 895.26 176.6H891.3V181.36ZM911.387 183.92V184.5H903.607C903.701 185.513 904.001 186.28 904.507 186.8C905.014 187.307 905.701 187.56 906.567 187.56C907.874 187.56 908.727 186.987 909.127 185.84H911.147C910.867 186.893 910.321 187.727 909.507 188.34C908.707 188.94 907.714 189.24 906.527 189.24C905.047 189.24 903.854 188.747 902.947 187.76C902.041 186.773 901.587 185.467 901.587 183.84C901.587 182.213 902.041 180.907 902.947 179.92C903.854 178.933 905.034 178.44 906.487 178.44C908.007 178.44 909.207 178.953 910.087 179.98C910.954 181.007 911.387 182.32 911.387 183.92ZM906.487 180.12C905.701 180.12 905.054 180.36 904.547 180.84C904.054 181.32 903.747 182.013 903.627 182.92H909.327C909.234 182.08 908.934 181.407 908.427 180.9C907.934 180.38 907.287 180.12 906.487 180.12ZM913.415 178.68V177.74C913.415 175.713 914.448 174.7 916.515 174.7C916.715 174.7 917.095 174.72 917.655 174.76V176.38H916.755C915.861 176.38 915.415 176.833 915.415 177.74V178.68H917.575V180.32H915.415V189H913.415V180.32H911.755V178.68H913.415ZM919.075 177.22V175.08H921.115V177.22H919.075ZM921.095 189H919.095V178.68H921.095V189ZM928.516 178.44C929.65 178.44 930.536 178.76 931.176 179.4C931.816 180.027 932.136 180.92 932.136 182.08V189H930.136V182.36C930.136 180.92 929.41 180.2 927.956 180.2C927.29 180.2 926.69 180.453 926.156 180.96C925.623 181.48 925.356 182.22 925.356 183.18V189H923.356V178.68H925.276V180.22C926.063 179.033 927.143 178.44 928.516 178.44ZM943.711 183.92V184.5H935.931C936.025 185.513 936.325 186.28 936.831 186.8C937.338 187.307 938.025 187.56 938.891 187.56C940.198 187.56 941.051 186.987 941.451 185.84H943.471C943.191 186.893 942.645 187.727 941.831 188.34C941.031 188.94 940.038 189.24 938.851 189.24C937.371 189.24 936.178 188.747 935.271 187.76C934.365 186.773 933.911 185.467 933.911 183.84C933.911 182.213 934.365 180.907 935.271 179.92C936.178 178.933 937.358 178.44 938.811 178.44C940.331 178.44 941.531 178.953 942.411 179.98C943.278 181.007 943.711 182.32 943.711 183.92ZM938.811 180.12C938.025 180.12 937.378 180.36 936.871 180.84C936.378 181.32 936.071 182.013 935.951 182.92H941.651C941.558 182.08 941.258 181.407 940.751 180.9C940.258 180.38 939.611 180.12 938.811 180.12Z" fill="white"/>
<path d="M946.942 189H944.522V186.62H946.942V189Z" fill="#841662"/>
</g>
<defs>
<clipPath id="clip0_3_1016">
<rect width="982.8" height="206.222" fill="white"/>
</clipPath>
</defs>
</svg>
